Patient4_TMGait_0pt7_02_left_11_EMG.mot
version=1
nRows=17
nColumns=33
inDegrees=no
endheader
time	1LAddLong	2LGlutMax	3LGlutMed	4LIliopsoas	5LSemiMemb	6LBicFemLong	7LRecFem	8LVastMed	9LVastLat	10LGasMed	11LTibAnt	12lTibPost	13LPeroneusLong	14LSol	15LExtDigLong	16LFlexDigLong	17RAddLong	18RGlutMax	19RGlutMed	20RIliopsoas	21RSemiMemb	22RBicFemLong	23RRecFem	24RVastMed	25RVastLat	26RGasMed	27RTibAnt	28RTibPost	29RPeroneusLong	30RSol	31RExtDigLong	32RFlexDigLong
13.035	0.016479	0.078735	-0.035095	0.007172	-0.017853	0.014496	-0.31845	0.005341	0.00946	-0.63934	-0.005188	-0.076141	-0.04837	0.14954	-0.003052	-1.3289	-0.068817	0.25513	-0.03006	-0.26825	0.40161	-0.094604	-0.50323	-0.34653	0.70694	-0.026855	-0.094147	-0.000305	0.69199	-0.068054	-0.002899	0.003204
13.036	0.016022	0.093842	-0.084686	0.007324	0.012054	-0.06958	-0.3215	0.006256	0.003815	-0.83176	-0.011902	-0.085297	0.076447	0.87616	-0.020599	0.37094	-0.1091	0.28702	-0.39276	-0.16953	0.29572	0.031891	-0.18082	-0.13473	0.61844	-0.025635	-0.095367	-0.004425	0.059967	-0.079346	-0.007019	0.005341
13.037	0.013123	0.10742	-0.10742	0.029755	0.021973	-0.1265	-0.32044	0.008087	0.014038	-0.71686	-0.000458	-0.22751	0.2121	1.0754	-0.048218	0.56686	-0.16327	0.19714	-0.26993	0.039215	0.62943	0.16159	-0.03952	0.072479	0.37048	-0.021667	-0.056152	-0.007019	0.067291	-0.065002	-0.004272	-0.002899
13.038	0.017548	0.074615	-0.057831	0.016174	0.009918	-0.15518	-0.29297	0.008545	-0.000305	-0.45593	0.006561	0.1236	0.24658	0.68924	-0.04425	0.15945	-0.095978	-0.000916	0.12344	0.10925	0.85953	0.28931	-0.044861	-0.027008	0.016632	0.010986	-0.007172	-0.006561	-0.054779	-0.025024	0.002289	-0.005188
13.039	0.00885	0.035858	0.049286	-0.007782	-0.004883	-0.13672	-0.2449	0.012665	-0.028992	0.11017	-0.004272	0.041962	0.29617	0.41824	-0.021057	-0.012207	-0.037231	-0.13931	0.66513	0.15595	0.76691	0.29312	-0.083313	-0.05249	-0.2005	0.052795	0.010529	-0.011749	-0.0383	0.002441	-0.001984	-0.001678
13.04	-0.000916	0.045319	0.02182	0.000458	-0.008698	-0.080872	-0.22675	0.015259	-0.028534	0.43778	-0.013885	-0.005035	0.28214	0.30731	0.037994	0.21408	-0.067902	-0.23285	0.74585	0.25696	0.62454	0.31296	-0.14938	-0.011597	-0.28854	0.027466	0.024719	-0.012817	-0.075989	-0.015259	0.006561	-0.006714
13.041	0.007782	0.041656	-0.0177	-0.005798	-0.000305	-0.004425	-0.23514	0.013428	-0.014954	0.28488	-0.014343	-0.048065	0.20126	0.09201	0.052185	-0.23163	-0.091553	-0.2095	0.44266	0.009766	0.47943	0.3952	-0.12054	0.058899	-0.28732	0.016174	0.020447	-0.021515	-0.090179	-0.028839	-0.003967	-0.00061
13.042	0.005188	0.053101	0.068359	0.013123	0.01297	0.035248	-0.24674	0.013275	-0.022583	0.15289	-0.01297	-0.042572	0.10712	-0.14206	0.016479	-0.15549	-0.077667	-0.10391	0.40314	-0.26642	0.29602	0.47028	-0.088654	0.30045	-0.31281	0.015411	0.011749	-0.002441	-0.10284	-0.04837	-0.001831	0.003815
13.043	-0.001221	0.052185	0.15961	0.028839	-0.002289	0.075073	-0.25559	0.008392	-0.02243	0.12314	-0.001068	-0.024567	0.063782	-0.25085	0	0.19073	-0.063019	-0.1062	0.38086	-0.24628	0.57739	0.62088	-0.13016	0.93231	-0.29999	0.002136	0.010834	0.075836	-0.086823	-0.039368	0.002136	-0.010986
13.044	-0.007477	0.065308	0.11002	0.003662	-0.005341	0.12436	-0.25848	0.003967	-0.024719	0.30823	-0.000458	0.005188	0.028839	-0.17532	-0.01358	-0.24841	-0.023499	-0.13825	0.44296	-0.087891	0.58579	0.70206	-0.22858	1.2535	-0.29633	-0.016479	0.032501	0.011749	-0.091095	-0.023041	-0.001221	-0.005951
13.045	0.001221	0.014496	0.093842	-0.014191	-0.004883	0.10391	-0.298	0.009613	-0.006409	0.037994	0.004272	0.015564	-0.00061	-0.14877	-0.003357	-0.25009	0.042572	-0.14847	0.40009	0.077667	0.77469	0.73379	-0.18249	1.9559	-0.2211	-0.00885	0.029907	-0.009155	-0.060577	-0.007782	-0.00412	-0.003052
13.046	0.020294	0.006714	0.15427	-0.010376	0.014038	0.044098	-0.32562	0.024719	0.023651	-0.26382	0.016785	0.005188	0.11063	0.13107	-0.008698	-0.006561	0.082855	0.015717	0.2919	0.224	0.8522	0.74997	-0.26077	1.53	0.42862	-0.013123	0.004883	-0.010223	0.24094	0.026245	-0.004578	-0.006104
13.047	0.005341	-0.021667	0.14893	0.005188	0.010681	0.019226	-0.31326	-0.030823	0.020752	-0.28107	0.005493	0.003052	0.11047	0.17197	-0.014038	0.14191	0.12894	0.092163	0.10773	0.31647	0.71762	0.86289	-0.37262	0.44846	0.69412	-0.014191	0.032043	-0.007935	0.42389	0.009613	-0.001678	-0.010071
13.048	0.013123	-0.023499	0.16892	0.007324	0.003357	-0.01709	-0.32715	0.004272	0.023041	-0.19867	0.017395	0.002594	0.094299	0.12436	-0.018921	0.072327	0.17716	0.12146	0.10239	0.22553	0.62118	0.91324	-0.66009	-0.56946	0.16129	-0.013428	0.036774	0.001373	0.21637	-0.026093	-0.000305	-0.008392
13.049	0.026398	0.006256	0.19821	-0.003052	0.016479	-0.02533	-0.31693	-0.016022	0.014191	-0.11185	0.014191	-0.005341	0.14832	0.19196	-0.007629	-0.25665	0.2298	0.065002	0.055695	0.050659	0.44525	0.9436	-0.57037	-1.4075	-0.33295	-0.012665	0.019379	-0.001984	0.30563	-0.009155	-0.002289	-0.009003
13.05	0.01236	-0.035248	0.19608	-0.013885	-0.003662	0.03418	-0.27634	0.001373	0.01709	-0.016937	0.021667	0.000153	0.13153	0.25345	0.00946	0.14557	0.18982	0.12573	0.17349	-0.081024	0.29236	1.0645	-0.2655	-1.7448	-0.56229	-0.014343	-0.001678	-0.000153	0.46967	0.001526	-0.00412	-0.007019
13.051	-0.01297	-0.051117	0.1947	-0.00885	-0.06073	0.12375	-0.22751	0.011444	-0.030212	-0.06546	0.024109	0.12131	-0.060883	0.24338	0.031281	0.1091	0.16007	0.16464	-0.080414	-0.16846	0.23392	1.1945	-0.031433	-1.4957	-0.57968	-0.010529	-0.00351	-0.00351	0.2214	-0.013885	-0.003662	0.000458
